<svg xmlns="http://www.w3.org/2000/svg" viewBox="0 0 400 400">
  <rect width="400" height="400" rx="50" fill="#FF61F6"/>
  <rect width="400" height="400" rx="50" fill="#470137"/>
  <path d="M164 280l-30-72h-18L86 280h18l6.5-17h29L146 280h18zm-39.5-30l10.5-28 10.5 28h-21z" fill="#FF61F6"/>
  <path d="M294 256c0 14.5-10.5 25-25 25-8 0-15-3.5-19-9.5l1.5 8h-16V120h17v64c4-5.5 10.5-8.5 18.5-8.5 15 0 23 11 23 80.5zm-17 0c0-20-4.5-42-15-42-7.5 0-13 5.5-13 13v58c0 7.5 5.5 13 13 13 10.5 0 15-22 15-42z" fill="#FF61F6"/>
</svg>
