<svg width="128" height="128" viewBox="0 0 128 128" fill="none" xmlns="http://www.w3.org/2000/svg">
<path d="M20.7725 39.742C20.007 40.1955 18.7331 41.4795 17.2191 43.3416L18.6116 45.9832C19.5918 44.5802 20.5861 43.3133 21.5888 42.2334C21.6679 42.1484 21.7046 42.1087 21.7046 42.1087C21.6679 42.1484 21.6255 42.1937 21.5888 42.2334C21.264 42.5905 20.2782 43.747 18.7924 46.0371C20.2245 45.9662 22.4221 45.6715 24.2157 45.3654C24.7524 42.3638 23.6932 40.992 23.6932 40.992C23.6932 40.992 22.3486 38.8095 20.7725 39.742V39.742Z" fill="url(#paint0_linear_102_58)"/>
<path d="M16.0865 61.9319C15.9086 61.9631 15.7278 61.9971 15.5385 62.0283C15.5385 62.0283 15.5357 62.0283 15.5357 62.0311C15.6317 62.0169 15.725 62.0027 15.8182 61.9886C15.9057 61.9687 15.9961 61.9517 16.0865 61.9319Z" fill="#BD202E"/>
<path opacity="0.35" d="M16.0865 61.9319C15.9086 61.9631 15.7278 61.9971 15.5385 62.0283C15.5385 62.0283 15.5357 62.0283 15.5357 62.0311C15.6317 62.0169 15.725 62.0027 15.8182 61.9886C15.9057 61.9687 15.9961 61.9517 16.0865 61.9319Z" fill="#BD202E"/>
<path d="M16.5526 59.6219C16.5526 59.6219 16.5526 59.6248 16.5526 59.6219C16.5497 59.6219 16.5497 59.6219 16.5497 59.6248C16.578 59.6219 16.6091 59.6163 16.6373 59.6106C16.7559 59.5936 16.8718 59.5738 16.9847 59.5454C16.8435 59.5709 16.7023 59.5964 16.5526 59.6219V59.6219Z" fill="#BD202E"/>
<path opacity="0.35" d="M16.5526 59.6219C16.5526 59.6219 16.5526 59.6248 16.5526 59.6219C16.5497 59.6219 16.5497 59.6219 16.5497 59.6248C16.578 59.6219 16.6091 59.6163 16.6373 59.6106C16.7559 59.5936 16.8718 59.5738 16.9847 59.5454C16.8435 59.5709 16.7023 59.5964 16.5526 59.6219V59.6219Z" fill="#BD202E"/>
<path d="M14.4989 52.8112C14.9226 52.0147 15.352 51.2381 15.7842 50.4842C16.2333 49.6962 16.6909 48.9366 17.1513 48.1997C17.1767 48.1572 17.2078 48.1118 17.2332 48.0693C17.688 47.3466 18.1484 46.6493 18.6088 45.9861L17.2163 43.3445C17.1118 43.472 17.0072 43.6024 16.8999 43.7385C16.496 44.243 16.0808 44.7815 15.6514 45.3569C15.1684 46.0031 14.6741 46.6947 14.1685 47.4203C13.7052 48.0892 13.2307 48.7892 12.7561 49.5177C12.3522 50.1356 11.9511 50.7705 11.55 51.4224C11.5359 51.445 11.5218 51.4705 11.5076 51.496L13.3239 55.0957C13.708 54.3162 14.1035 53.5538 14.4989 52.8112Z" fill="url(#paint1_linear_102_58)"/>
<path d="M6.22845 73.0826C5.98835 73.743 5.74543 74.4204 5.50534 75.1091C5.50251 75.1176 5.49969 75.129 5.49404 75.1375C5.46014 75.2338 5.42342 75.333 5.39235 75.4294C5.22852 75.8942 5.08729 76.3137 4.76245 77.2632C5.29631 77.507 5.72566 78.1532 6.13241 78.8845C6.09004 78.1277 5.77933 77.4163 5.18333 76.8664C7.81873 76.9855 10.0898 76.3166 11.2648 74.3835C11.3693 74.2107 11.4654 74.0321 11.5529 73.8365C11.0191 74.5168 10.3553 74.803 9.1096 74.735C9.10678 74.735 9.10395 74.7378 9.10113 74.7378C9.10395 74.7378 9.10678 74.735 9.1096 74.735C10.9456 73.9102 11.8636 73.1194 12.68 71.81C12.8721 71.4982 13.0613 71.1609 13.2534 70.7839C11.649 72.4364 9.79317 72.9069 7.83568 72.5497L6.36686 72.7113C6.31884 72.836 6.27647 72.9579 6.22845 73.0826V73.0826Z" fill="url(#paint2_linear_102_58)"/>
<path d="M6.91488 69.7861C7.23124 68.9642 7.5589 68.1309 7.89221 67.2919C8.21422 66.487 8.54188 65.6764 8.88084 64.8657C9.2198 64.0551 9.56441 63.236 9.91467 62.4197C10.2706 61.5892 10.6378 60.7616 11.0135 59.9368C11.3835 59.1205 11.7563 58.3099 12.1377 57.5106C12.2733 57.2215 12.4145 56.9324 12.5529 56.6461C12.793 56.1501 13.0359 55.657 13.2817 55.1695C13.2958 55.1439 13.3071 55.1156 13.3212 55.0901L11.5049 51.4905C11.4767 51.5387 11.4456 51.5897 11.4146 51.635C10.9909 52.3294 10.57 53.038 10.1576 53.7608C9.73954 54.492 9.32996 55.2375 8.92886 55.9942C8.59272 56.632 8.26224 57.2725 7.9374 57.9244C7.87244 58.0548 7.81029 58.188 7.74533 58.3184C7.34987 59.1375 6.99397 59.9226 6.66913 60.6851C6.30192 61.5439 5.97991 62.3658 5.70027 63.1453C5.51384 63.6583 5.34719 64.1515 5.19183 64.6276C5.06472 65.033 4.94609 65.4411 4.82745 65.8464C4.55628 66.7988 4.32184 67.7511 4.12976 68.6978L5.95449 72.3115C6.19459 71.6653 6.44316 71.0078 6.69738 70.3445C6.77364 70.1546 6.84144 69.9675 6.91488 69.7861V69.7861Z" fill="url(#paint3_linear_102_58)"/>
<path d="M4.10988 68.8196C3.88108 69.976 3.71725 71.1268 3.63534 72.2719C3.63251 72.3115 3.62969 72.3512 3.62686 72.3909C3.05628 71.4754 1.53379 70.5826 1.53662 70.5911C2.62976 72.1783 3.45738 73.7542 3.57884 75.3018C2.99414 75.4208 2.19476 75.2479 1.2711 74.9078C2.23431 75.7978 2.95742 76.0415 3.24271 76.1096C2.35577 76.1662 1.43493 76.7756 0.505614 77.4785C1.86428 76.923 2.96307 76.7019 3.74832 76.8805C2.49982 80.4234 1.25132 84.3348 0 88.49C0.384154 88.3766 0.612951 88.1158 0.740061 87.7672C0.963209 87.0161 2.44051 82.0787 4.75955 75.5965C4.82734 75.4123 4.89231 75.2252 4.9601 75.041C4.97705 74.9872 4.99682 74.9361 5.0166 74.888C5.25952 74.2077 5.51656 73.5133 5.77643 72.8047C5.83575 72.6432 5.89507 72.4816 5.95721 72.32C5.95721 72.3172 5.96003 72.3144 5.96003 72.3115L4.13248 68.6978C4.12683 68.7346 4.11835 68.7771 4.10988 68.8196Z" fill="url(#paint4_linear_102_58)"/>
<path d="M13.6035 55.3903C13.5498 55.498 13.499 55.6057 13.4453 55.7134C13.2871 56.0393 13.1289 56.3709 12.9651 56.7111C12.79 57.0795 12.6148 57.4536 12.4369 57.8391C12.3465 58.0319 12.2561 58.2274 12.1657 58.4258C11.8946 59.0182 11.6206 59.6304 11.3409 60.2625C10.9991 61.0363 10.6461 61.844 10.293 62.683C9.95684 63.4823 9.60941 64.3071 9.2648 65.1631C8.93432 65.9737 8.60101 66.8126 8.26205 67.6743C7.95981 68.4424 7.65474 69.236 7.34968 70.0495C7.33556 70.0863 7.32143 70.1288 7.30731 70.1657C7.00225 70.9735 6.69436 71.8039 6.38647 72.6542C6.38082 72.6741 6.37235 72.6911 6.3667 72.7137L7.83552 72.5522C7.80728 72.5465 7.7762 72.5437 7.74796 72.538C9.50207 72.3198 11.8381 71.0018 13.3436 69.3777C14.0385 68.6295 14.6684 67.7451 15.2503 66.7106C15.6824 65.9425 16.092 65.0865 16.4818 64.1427C16.8208 63.3179 17.1456 62.4222 17.4591 61.4557C17.0552 61.6683 16.5948 61.827 16.0864 61.9347C15.996 61.9546 15.9056 61.9716 15.8124 61.9886C15.7191 62.0056 15.6259 62.0198 15.5299 62.0311C15.5299 62.0311 15.5327 62.0311 15.5327 62.0283C17.171 61.3962 18.202 60.1775 18.9506 58.6838C18.5212 58.9785 17.8207 59.364 16.9818 59.5482C16.8688 59.5737 16.753 59.5936 16.6343 59.6134C16.6061 59.6163 16.575 59.6219 16.5468 59.6276H16.5496C16.5496 59.6276 16.5496 59.6276 16.5524 59.6276C17.123 59.3895 17.6004 59.1202 18.0156 58.8056C18.106 58.7376 18.1936 58.6696 18.2726 58.5959C18.3998 58.4853 18.5184 58.3691 18.637 58.2501C18.7105 58.1707 18.7811 58.0914 18.8517 58.0092C19.0155 57.8136 19.1681 57.6039 19.3093 57.3771C19.3517 57.3063 19.3969 57.2382 19.4364 57.1645C19.4929 57.0597 19.5437 56.9548 19.5946 56.8556C19.8234 56.3964 20.007 55.9826 20.151 55.6227C20.2245 55.4413 20.2866 55.2769 20.3431 55.1182C20.3657 55.0558 20.3855 54.9963 20.4053 54.9368C20.4646 54.7639 20.5098 54.6108 20.5465 54.4748C20.603 54.2707 20.6369 54.1091 20.6538 53.9929C20.5973 54.0354 20.5352 54.0808 20.4618 54.1233C19.9674 54.4209 19.12 54.6873 18.4365 54.8149L19.7838 54.6675L18.4365 54.8149C18.428 54.8177 18.4167 54.8177 18.4054 54.8205C18.3348 54.8319 18.2698 54.8432 18.1992 54.8517C18.2105 54.8461 18.2218 54.8404 18.2331 54.8347L13.6204 55.3421C13.6204 55.3534 13.612 55.3732 13.6035 55.3903V55.3903Z" fill="url(#paint5_linear_102_58)"/>
<path d="M18.7954 46.0369C18.3858 46.6689 17.9395 47.386 17.4537 48.1995C17.4283 48.2392 17.4 48.2873 17.3774 48.327C16.9622 49.0299 16.5216 49.8009 16.0527 50.6483C15.6516 51.3796 15.2335 52.1619 14.7985 53.0037C14.42 53.7378 14.0302 54.5172 13.6263 55.342L18.239 54.8347C19.5835 54.2139 20.1823 53.6556 20.7642 52.8421C20.9167 52.6182 21.0749 52.3858 21.2274 52.142C21.702 51.3995 22.1652 50.5832 22.5805 49.7697C22.9816 48.9846 23.3346 48.208 23.6058 47.5051C23.7781 47.0601 23.9165 46.6463 24.0126 46.2806C24.0973 45.9604 24.1623 45.6542 24.2131 45.3623C22.4251 45.6712 20.2247 45.966 18.7954 46.0369V46.0369Z" fill="url(#paint6_linear_102_58)"/>
<path d="M15.8124 61.9829C15.7192 61.9999 15.626 62.0141 15.53 62.0254C15.626 62.0169 15.722 61.9999 15.8124 61.9829Z" fill="#BD202E"/>
<path opacity="0.35" d="M15.8124 61.9829C15.7192 61.9999 15.626 62.0141 15.53 62.0254C15.626 62.0169 15.722 61.9999 15.8124 61.9829Z" fill="#BD202E"/>
<path d="M15.8124 61.9829C15.7192 61.9999 15.626 62.0141 15.53 62.0254C15.626 62.0169 15.722 61.9999 15.8124 61.9829Z" fill="url(#paint7_linear_102_58)"/>
<path d="M16.5497 59.6253C16.578 59.6224 16.6091 59.6168 16.6373 59.6111C16.6091 59.6139 16.5808 59.6224 16.5497 59.6253Z" fill="#BD202E"/>
<path opacity="0.35" d="M16.5497 59.6253C16.578 59.6224 16.6091 59.6168 16.6373 59.6111C16.6091 59.6139 16.5808 59.6224 16.5497 59.6253Z" fill="#BD202E"/>
<path d="M16.5497 59.6253C16.578 59.6224 16.6091 59.6168 16.6373 59.6111C16.6091 59.6139 16.5808 59.6224 16.5497 59.6253Z" fill="url(#paint8_linear_102_58)"/>
<path d="M16.5497 59.6254C16.5533 59.6254 16.5533 59.6218 16.5497 59.6254C16.5533 59.6218 16.5533 59.6254 16.5497 59.6254Z" fill="#BD202E"/>
<path opacity="0.35" d="M16.5497 59.6254C16.5533 59.6254 16.5533 59.6218 16.5497 59.6254C16.5533 59.6218 16.5533 59.6254 16.5497 59.6254Z" fill="#BD202E"/>
<path d="M16.5497 59.6254C16.5533 59.6254 16.5533 59.6218 16.5497 59.6254C16.5533 59.6218 16.5533 59.6254 16.5497 59.6254Z" fill="url(#paint9_linear_102_58)"/>
<path d="M82.6305 72.5696C82.3474 72.5186 81.2787 72.2439 81.1116 72.1791C80.7196 72.0272 79.3736 71.3354 79.2155 71.2046C79.0042 71.0298 78.9771 71.0087 78.5923 70.7209C78.2109 70.4358 77.393 69.615 77.1089 69.2325C76.9875 69.0689 76.8548 68.8944 76.814 68.8447C76.7733 68.795 76.705 68.7114 76.6622 68.6588C76.5724 68.5486 75.8138 67.2622 75.8138 67.2203C75.8138 67.2049 75.7348 67.0156 75.6384 66.7997C75.5419 66.5838 75.405 66.2399 75.3341 66.0355C75.2633 65.831 75.1767 65.5968 75.1417 65.515C75.0633 65.3319 74.8493 64.3206 74.772 63.7678C74.6903 63.1832 74.6928 61.5789 74.7763 61.0541C74.9962 59.6715 75.1697 59.0806 75.6729 58.0009C75.7504 57.8346 75.8138 57.659 75.8138 57.6105C75.8138 57.5621 75.8471 57.5225 75.8878 57.5225C75.9286 57.5225 75.9619 57.4793 75.9619 57.4264C75.9619 57.3736 76.1678 57.0174 76.4194 56.6348C76.8276 56.0142 77.7572 54.9837 78.37 54.4725C79.0042 53.9435 80.2585 53.254 81.0076 53.0227C81.2278 52.9547 81.4913 52.8702 81.5932 52.8348C81.9697 52.7042 82.6932 52.6092 83.6308 52.5673C84.8393 52.5133 86.1073 52.6716 87.0021 52.9883C87.6713 53.2251 88.2826 53.5084 88.3235 53.6006C88.3371 53.6312 88.3806 53.6563 88.4202 53.6563C88.5764 53.6563 89.4176 54.2958 89.9226 54.7985C90.507 55.3802 90.8896 55.8897 91.1927 56.4899C91.3825 56.8658 91.3848 56.8842 91.2522 56.976C91.1764 57.0284 91.0794 57.0975 91.0367 57.1296C90.994 57.1617 90.8721 57.2381 90.7659 57.2994C90.6597 57.3608 90.4192 57.5064 90.2314 57.623C89.8488 57.8607 89.7029 57.8433 89.5904 57.5464C89.2762 56.7172 87.8351 55.3565 86.8539 54.9627C85.7735 54.529 85.1181 54.3996 84.0062 54.4004C82.828 54.4016 82.0703 54.5464 81.1285 54.952C80.8068 55.0905 80.1205 55.5019 79.9763 55.6425C79.9225 55.6951 79.8556 55.7381 79.8278 55.7381C79.7491 55.7381 78.9251 56.5541 78.5626 56.9911C78.1701 57.4642 77.4884 58.6806 77.3273 59.1953C77.2633 59.3998 77.1817 59.634 77.1459 59.7158C76.8312 60.4353 76.6457 62.1784 76.7604 63.3403C76.8388 64.1356 77.0036 64.9683 77.1466 65.292C77.1827 65.3738 77.2344 65.5243 77.2615 65.6265C77.3808 66.0774 78.0785 67.3819 78.4441 67.8379C78.8093 68.2933 79.4755 68.9963 79.7779 69.2452C80.1242 69.5303 81.2486 70.2356 81.3585 70.2366C81.3857 70.2366 81.494 70.2822 81.5992 70.3373C81.7044 70.3924 82.0879 70.5175 82.4513 70.6155C83.0069 70.7652 83.2714 70.7921 84.1124 70.7845C85.5196 70.7718 86.4125 70.5281 87.5949 69.8341C88.3696 69.3794 89.4397 68.3295 89.8177 67.6534C89.9604 67.3982 90.1104 67.189 90.1512 67.1885C90.3083 67.1863 91.7442 67.9703 91.7442 68.0582C91.7442 68.1624 91.3126 68.9889 91.2281 69.0466C91.1981 69.067 91.1352 69.157 91.0883 69.2465C90.9114 69.5837 90.1003 70.3795 89.3361 70.9657C88.9306 71.2768 87.8572 71.8238 87.1133 72.0985C86.1248 72.4635 85.5253 72.5614 84.1495 72.5825C83.4159 72.5938 82.7324 72.588 82.6305 72.5696V72.5696ZM23.5026 72.4656C23.5026 72.4242 23.5347 72.3322 23.5741 72.2612C23.6134 72.1902 23.7152 71.9648 23.8004 71.7604C23.8855 71.5559 23.9846 71.3217 24.0205 71.2399C24.0563 71.1581 24.2895 70.6061 24.5385 70.0131C24.7876 69.4202 25.0217 68.8682 25.0587 68.7864C25.0957 68.7046 25.2124 68.4202 25.3179 68.1544C25.4234 67.8886 25.5398 67.6042 25.5765 67.5224C25.6132 67.4407 25.7141 67.2065 25.8008 67.002C25.8875 66.7975 26.006 66.5248 26.0642 66.396C26.1224 66.2671 26.17 66.1398 26.17 66.1131C26.17 66.0709 26.3121 65.7282 26.5412 65.2176C26.5779 65.1358 26.6943 64.8515 26.7998 64.5857C26.9053 64.3198 27.022 64.0355 27.0591 63.9537C27.0962 63.8719 27.2129 63.5875 27.3185 63.3217C27.424 63.0559 27.5404 62.7715 27.5771 62.6897C27.6138 62.608 27.7141 62.3738 27.8001 62.1693C27.886 61.9648 27.9857 61.7307 28.0216 61.6489C28.0575 61.5671 28.2409 61.1321 28.429 60.6823C28.6171 60.2325 28.801 59.7976 28.8376 59.7158C28.8742 59.634 29.0408 59.2325 29.2079 58.8236C29.375 58.4147 29.5415 58.0132 29.5779 57.9314C29.6143 57.8496 29.7608 57.4983 29.9033 57.1507C30.7018 55.2035 30.8848 54.7632 31.062 54.3627C31.0981 54.2809 31.2147 53.9965 31.321 53.7307C31.4273 53.4649 31.579 53.1052 31.6581 52.9314L31.802 52.6154H32.6075H33.4131L33.5787 53.0058C33.7848 53.4913 34.0113 54.0182 34.0982 54.214C34.3504 54.7822 34.4686 55.067 34.4686 55.1061C34.4686 55.1477 34.6108 55.4844 34.8815 56.0839C34.9397 56.2128 34.9873 56.3401 34.9873 56.3668C34.9873 56.4088 35.1019 56.6858 35.3578 57.2623C35.61 57.8305 35.7283 58.1153 35.7283 58.1544C35.7283 58.1794 35.7974 58.3569 35.8818 58.5489C35.9663 58.7409 36.0852 59.015 36.1462 59.1582C36.2071 59.3013 36.2865 59.4853 36.3227 59.5671C36.3589 59.6489 36.4748 59.9333 36.5804 60.1991C36.6859 60.4649 36.802 60.7492 36.8384 60.831C36.8748 60.9128 37.1087 61.4649 37.3584 62.0578C37.608 62.6507 37.842 63.2028 37.8783 63.2845C37.9147 63.3663 37.9988 63.5671 38.0652 63.7306C38.7465 65.4097 39.0171 66.0698 39.1012 66.2585C39.156 66.3812 39.338 66.8161 39.5058 67.2251C39.6736 67.634 39.8408 68.0355 39.8772 68.1172C39.9137 68.199 40.0139 68.4332 40.0999 68.6377C40.1858 68.8421 40.2862 69.0763 40.3229 69.1581C40.3596 69.2399 40.476 69.5243 40.5815 69.7901C40.687 70.0559 40.8035 70.3403 40.8403 70.4221C41.1992 71.2198 41.6559 72.3456 41.6559 72.4325C41.6559 72.5226 41.4745 72.541 40.5865 72.541C39.542 72.541 39.5159 72.5371 39.4662 72.3737C39.4208 72.2242 39.2485 71.8045 39.0618 71.3886C39.0251 71.3068 38.9082 71.0224 38.8019 70.7566C38.6208 70.3036 38.4743 69.9533 38.3199 69.6042C38.2837 69.5224 38.1678 69.238 38.0623 68.9722C37.9567 68.7064 37.8404 68.4221 37.8037 68.3403C37.5789 67.8395 37.4325 67.4875 37.4325 67.4481C37.4325 67.4232 37.3705 67.2624 37.2948 67.0909C37.2191 66.9193 37.1109 66.6702 37.0544 66.5373L36.9517 66.2957H32.5703H28.1888L28.0393 66.6489C27.9571 66.8431 27.7987 67.2362 27.6872 67.5224C27.5757 67.8087 27.4221 68.1833 27.3459 68.3548C27.2697 68.5263 27.2073 68.6871 27.2073 68.712C27.2073 68.7514 27.0608 69.1035 26.8361 69.6042C26.7994 69.686 26.683 69.9704 26.5775 70.2362C26.472 70.502 26.3546 70.7864 26.3167 70.8682C26.2787 70.9499 26.1272 71.318 25.98 71.686C25.8327 72.054 25.695 72.397 25.6738 72.4481C25.6251 72.5661 23.5026 72.5833 23.5026 72.4656V72.4656ZM36.4692 64.6559C36.4692 64.585 36.36 64.3175 36.0563 63.6451C35.9982 63.5162 35.9505 63.3874 35.9505 63.3589C35.9505 63.3304 35.9021 63.2016 35.8429 63.0727C35.7837 62.9439 35.5496 62.37 35.3228 61.7976C35.0959 61.2251 34.8794 60.6898 34.8416 60.608C34.8039 60.5262 34.6197 60.0578 34.4324 59.5671C34.2451 59.0764 34.0622 58.608 34.0259 58.5262C33.9897 58.4444 33.9101 58.2604 33.8492 58.1173C33.7883 57.9742 33.6693 57.7 33.5849 57.508C33.5004 57.316 33.4311 57.132 33.4309 57.0991C33.4309 57.0661 33.3874 56.9556 33.3347 56.8533C33.2821 56.7511 33.1589 56.45 33.0608 56.1842C32.9628 55.9184 32.8395 55.6173 32.7869 55.5151C32.7343 55.4128 32.6911 55.2874 32.6908 55.2362C32.6896 55.0799 32.5553 55.133 32.5019 55.3106C32.4742 55.4026 32.4075 55.5783 32.3537 55.7009C32.2999 55.8236 32.1185 56.2585 31.9506 56.6675C31.7828 57.0764 31.5484 57.6452 31.4299 57.9314C31.3113 58.2176 30.6819 59.74 30.0312 61.3143C29.3805 62.8886 28.7952 64.3022 28.7306 64.4556L28.6131 64.7344H32.5412C35.2467 64.7344 36.4692 64.7099 36.4692 64.6559V64.6559ZM43.7305 62.5782V52.6154L47.8614 52.6167C52.1757 52.6179 52.957 52.6578 53.6488 52.9165C54.137 53.0991 54.8937 53.4755 55.0321 53.6045C55.0851 53.6538 55.2396 53.7772 55.3756 53.8786C56.3316 54.592 57.2448 56.0162 57.5932 57.3373C57.9306 58.6164 57.7926 60.3578 57.2577 61.5715C56.4899 63.3136 55.1976 64.5193 53.5662 65.0157C53.2392 65.1152 52.5886 65.1383 49.4544 65.1619L45.7311 65.1899V68.8658V72.5417H44.7308H43.7305V62.5789V62.5782ZM52.524 63.3156C53.8907 63.1259 54.9985 62.0809 55.552 60.4593C55.7424 59.9014 55.7857 58.3614 55.6284 57.7426C55.4147 56.9017 55.023 56.2035 54.4414 55.6266C54.1528 55.3403 53.8171 55.056 53.6954 54.9947C53.5737 54.9335 53.4574 54.8653 53.437 54.8433C53.4166 54.8212 53.2499 54.7383 53.0665 54.6591C52.7552 54.5246 52.5013 54.5135 49.2321 54.4912L45.7311 54.4674V58.9317V63.3961H48.8378C50.6594 63.3961 52.1841 63.3628 52.524 63.3156V63.3156ZM56.6735 72.4852C56.6557 72.4546 56.7688 72.1284 56.925 71.7604C57.0812 71.3923 57.4967 70.3886 57.8483 69.5299C58.2 68.6711 58.5328 67.8682 58.5878 67.7455C58.6428 67.6228 58.8256 67.1879 58.9942 66.7789C59.2892 66.0629 59.4494 65.682 59.5882 65.3663C59.6242 65.2845 59.7909 64.8831 59.9587 64.4741C60.1265 64.0652 60.3078 63.6303 60.3617 63.5076C60.4155 63.3849 60.6314 62.8663 60.8414 62.3552C61.0514 61.844 61.3197 61.1916 61.4377 60.9054C61.6892 60.2952 62.5302 58.2958 62.6261 58.0801C62.6625 57.9983 62.7786 57.7139 62.8841 57.4481C62.9897 57.1823 63.106 56.898 63.1428 56.8162C63.1795 56.7344 63.2804 56.5002 63.3671 56.2957C63.4538 56.0913 63.5723 55.8186 63.6305 55.6897C63.6886 55.5608 63.7362 55.4336 63.7362 55.4068C63.7362 55.3648 63.8508 55.0878 64.1067 54.5113C64.2539 54.1798 64.4653 53.6689 64.6298 53.2474C64.7256 53.0021 64.8345 52.7595 64.8719 52.7084C64.919 52.644 65.185 52.6154 65.7369 52.6154H66.5339L66.6306 52.8571C66.8249 53.3427 67.676 55.3699 67.8869 55.8496C67.9228 55.9314 68.089 56.3329 68.256 56.7418C68.4231 57.1507 68.5905 57.5522 68.628 57.634C68.6655 57.7158 68.9487 58.4017 69.2574 59.1582C69.5661 59.9147 69.8486 60.6006 69.8852 60.6823C69.9218 60.7641 70.1252 61.2492 70.3371 61.7604C70.8379 62.9686 71.3584 64.2119 71.442 64.3998C71.4784 64.4816 71.5785 64.7158 71.6644 64.9202C71.7504 65.1247 71.8507 65.3589 71.8874 65.4407C71.9241 65.5225 72.0411 65.8068 72.1474 66.0726C72.3285 66.5257 72.475 66.8759 72.6294 67.2251C72.6655 67.3068 72.7821 67.5912 72.8883 67.857C72.9946 68.1228 73.1294 68.4457 73.188 68.5746C73.2466 68.7034 73.2945 68.8318 73.2945 68.8599C73.2945 68.888 73.3945 69.1279 73.5168 69.3929C73.6391 69.658 73.7391 69.8925 73.7391 69.9142C73.7391 69.9358 73.787 70.0589 73.8456 70.1878C73.9042 70.3166 74.0391 70.6395 74.1453 70.9053C74.2516 71.1711 74.3685 71.4555 74.4052 71.5373C74.6619 72.1092 74.7764 72.3947 74.7764 72.4626C74.7764 72.5821 72.7417 72.5682 72.6456 72.4481C72.6047 72.397 72.2798 71.6358 71.9237 70.7566C71.5675 69.8775 71.2322 69.0578 71.1785 68.9351C71.1248 68.8124 70.994 68.4946 70.8877 68.2288C70.7815 67.963 70.6645 67.6786 70.6278 67.5968C70.5273 67.3729 70.2922 66.8101 70.185 66.5367L70.09 66.2945L65.6819 66.3137L61.2739 66.3329L60.8352 67.4109C60.5939 68.0039 60.3644 68.5664 60.3251 68.6611C60.2859 68.7558 60.2538 68.8496 60.2538 68.8696C60.2538 68.9015 60.0929 69.2842 59.8826 69.7529C59.8459 69.8347 59.7289 70.1191 59.6226 70.3849C59.5164 70.6507 59.3857 70.9685 59.3322 71.0912C59.2788 71.2139 59.1242 71.5903 58.9889 71.9276L58.7427 72.541H57.7243C57.1642 72.541 56.6913 72.5159 56.6735 72.4852V72.4852ZM69.5898 64.6949C69.5898 64.6583 69.3346 64.021 69.1143 63.5076C69.0617 63.3849 68.9403 63.0671 68.8446 62.8013C68.7489 62.5355 68.6275 62.2344 68.5749 62.1321C68.5223 62.0299 68.479 61.9193 68.4788 61.8864C68.4775 61.8346 68.3478 61.516 68.1071 60.9797C68.0704 60.8979 67.9535 60.6135 67.8472 60.3478C67.741 60.082 67.6103 59.7641 67.5569 59.6414C67.5035 59.5188 67.3985 59.2511 67.3236 59.0466C67.2487 58.8422 67.1446 58.5913 67.0924 58.489C67.0401 58.3868 66.9971 58.2747 66.9969 58.24C66.9969 58.2053 66.9482 58.0715 66.8893 57.9426C66.8304 57.8138 66.6596 57.3905 66.5098 57.002C66.3599 56.6136 66.1794 56.1619 66.1087 55.9983C66.038 55.8348 65.9339 55.5921 65.8774 55.4592C65.7492 55.1576 65.6652 55.1817 65.5389 55.5564C65.4846 55.7177 65.4087 55.9165 65.3702 55.9983C65.3318 56.0801 65.23 56.3143 65.144 56.5188C65.0581 56.7232 64.9577 56.9574 64.9209 57.0392C64.8606 57.1732 64.0545 59.1065 63.0608 61.5002C62.8571 61.9909 62.6607 62.4593 62.6243 62.5411C62.5879 62.6228 62.422 63.0243 62.2556 63.4333C62.0892 63.8422 61.9042 64.2866 61.8444 64.4209C61.7846 64.5552 61.7357 64.6806 61.7357 64.6997C61.7357 64.7188 63.5028 64.7344 65.6627 64.7344C67.8226 64.7344 69.5898 64.7166 69.5898 64.6949V64.6949ZM94.4467 72.4503C94.4268 72.398 94.4192 67.9221 94.4296 62.5039L94.4487 52.6526H95.4119H96.3752L96.3943 57.0578L96.4134 61.463H102.229H108.045V57.0392V52.6154H109.045H110.046V62.5782V72.541H109.045H108.045V67.8942V63.2474H102.229H96.4133L96.3943 67.8756L96.3752 72.5038L95.429 72.5247C94.713 72.5404 94.474 72.5224 94.4467 72.4503V72.4503ZM114.417 62.5782V52.6154H120.938H127.458V53.5448V54.4742H121.938H116.418V57.9686V61.463H121.234H126.05V62.3552V63.2474H121.234H116.418V66.9648V70.6823H122.049H127.68V71.6116V72.541H121.049H114.417V62.5782Z" fill="#AA0000"/>
<path d="M22.9338 81.0718V74.9043H23.9714V77.5777H27.0226V74.9043H28.0602V81.0718H27.0226V78.5483H23.9714V81.0718H22.9338Z" fill="black"/>
<path d="M32.0903 75.8572V81.0718H31.0527V75.8572H29.1885V74.9043H33.9544V75.8572H32.0903Z" fill="black"/>
<path d="M37.3974 75.8572V81.0718H36.3598V75.8572H34.4957V74.9043H39.2615V75.8572H37.3974Z" fill="black"/>
<path d="M42.4931 74.9043C43.4252 74.9043 44.1052 75.0837 44.5331 75.4425C44.961 75.8013 45.175 76.3543 45.175 77.1013C45.175 77.8483 44.9552 78.3954 44.5155 78.7424C44.0817 79.0895 43.4135 79.263 42.5107 79.263H41.4203V81.0718H40.3828V74.9043H42.4931ZM42.625 78.3189C43.1995 78.3189 43.5893 78.2101 43.7945 77.9924C44.0055 77.7689 44.111 77.4454 44.111 77.0219C44.111 76.5925 43.9791 76.2895 43.7153 76.1131C43.4516 75.9366 43.0383 75.8484 42.4755 75.8484H41.4203V78.3189H42.625Z" fill="black"/>
<path d="M50.6532 75.7161C50.3542 75.7161 50.108 75.7779 49.9146 75.9014C49.7211 76.0249 49.6244 76.2132 49.6244 76.4661C49.6244 76.7132 49.7211 76.9043 49.9146 77.0396C50.108 77.169 50.5184 77.3102 51.1456 77.4631C51.7787 77.6161 52.2535 77.8308 52.5701 78.1072C52.8925 78.3837 53.0537 78.7925 53.0537 79.3337C53.0537 79.869 52.8515 80.3042 52.447 80.6395C52.0425 80.9748 51.512 81.1424 50.8554 81.1424C49.894 81.1424 49.0411 80.8101 48.2966 80.1454L48.9473 79.3601C49.5687 79.9013 50.2135 80.1719 50.8818 80.1719C51.2159 80.1719 51.4797 80.1013 51.6732 79.9601C51.8725 79.8131 51.9722 79.6219 51.9722 79.3866C51.9722 79.1454 51.8784 78.9602 51.6908 78.8307C51.5091 78.6955 51.1925 78.5749 50.7411 78.469C50.2897 78.3572 49.9468 78.2572 49.7123 78.169C49.4778 78.0749 49.2697 77.9543 49.088 77.8073C48.7246 77.5308 48.5428 77.1073 48.5428 76.5367C48.5428 75.9661 48.748 75.5279 49.1584 75.222C49.5746 74.9103 50.0875 74.7544 50.6972 74.7544C51.0899 74.7544 51.4797 74.8191 51.8666 74.9485C52.2535 75.0779 52.5877 75.2603 52.8691 75.4956L52.3151 76.2808C52.1334 76.1161 51.8872 75.9808 51.5765 75.875C51.2658 75.7691 50.958 75.7161 50.6532 75.7161V75.7161Z" fill="black"/>
<path d="M58.6626 74.9043V75.8837H55.3827V77.516H58.3284V78.4424H55.3827V80.0924H58.7681V81.0718H54.3452V74.9043H58.6626Z" fill="black"/>
<path d="M65.0052 76.9072C65.0052 77.9248 64.5626 78.566 63.6774 78.8307L65.2866 81.0718H63.9676L62.4992 78.9983H61.1362V81.0718H60.0986V74.9043H62.3848C63.3228 74.9043 63.994 75.0631 64.3985 75.3808C64.803 75.6984 65.0052 76.2072 65.0052 76.9072V76.9072ZM62.4288 78.0542C63.015 78.0542 63.4136 77.963 63.6247 77.7807C63.8357 77.5983 63.9412 77.3072 63.9412 76.9072C63.9412 76.5013 63.8328 76.2248 63.6159 76.0778C63.399 75.9249 63.0121 75.8484 62.4552 75.8484H61.1362V78.0542H62.4288Z" fill="black"/>
<path d="M69.2235 81.0718H68.0628L65.5919 74.9043H66.7526L68.6431 79.51L70.5337 74.9043H71.6944L69.2235 81.0718Z" fill="black"/>
<path d="M76.8845 74.9043V75.8837H73.6047V77.516H76.5504V78.4424H73.6047V80.0924H76.99V81.0718H72.5671V74.9043H76.8845Z" fill="black"/>
<path d="M83.2268 76.9072C83.2268 77.9248 82.7842 78.566 81.8991 78.8307L83.5082 81.0718H82.1892L80.7208 78.9983H79.3578V81.0718H78.3203V74.9043H80.6065C81.5444 74.9043 82.2156 75.0631 82.6201 75.3808C83.0246 75.6984 83.2268 76.2072 83.2268 76.9072V76.9072ZM80.6504 78.0542C81.2366 78.0542 81.6353 77.963 81.8463 77.7807C82.0573 77.5983 82.1629 77.3072 82.1629 76.9072C82.1629 76.5013 82.0544 76.2248 81.8375 76.0778C81.6206 75.9249 81.2337 75.8484 80.6768 75.8484H79.3578V78.0542H80.6504Z" fill="black"/>
<path d="M89.2408 74.9043C90.1729 74.9043 90.8529 75.0837 91.2809 75.4425C91.7088 75.8013 91.9228 76.3543 91.9228 77.1013C91.9228 77.8483 91.7029 78.3954 91.2633 78.7424C90.8295 79.0895 90.1612 79.263 89.2584 79.263H88.1681V81.0718H87.1305V74.9043H89.2408ZM89.3727 78.3189C89.9472 78.3189 90.3371 78.2101 90.5422 77.9924C90.7533 77.7689 90.8588 77.4454 90.8588 77.0219C90.8588 76.5925 90.7269 76.2895 90.4631 76.1131C90.1993 75.9366 89.786 75.8484 89.2233 75.8484H88.1681V78.3189H89.3727Z" fill="black"/>
<path d="M98.0479 76.9072C98.0479 77.9248 97.6053 78.566 96.7202 78.8307L98.3293 81.0718H97.0103L95.5419 78.9983H94.1789V81.0718H93.1414V74.9043H95.4276C96.3655 74.9043 97.0367 75.0631 97.4412 75.3808C97.8457 75.6984 98.0479 76.2072 98.0479 76.9072V76.9072ZM95.4715 78.0542C96.0577 78.0542 96.4564 77.963 96.6674 77.7807C96.8784 77.5983 96.984 77.3072 96.984 76.9072C96.984 76.5013 96.8755 76.2248 96.6586 76.0778C96.4417 75.9249 96.0548 75.8484 95.4979 75.8484H94.1789V78.0542H95.4715Z" fill="black"/>
<path d="M103.926 76.3602C103.51 75.925 102.997 75.7073 102.387 75.7073C101.778 75.7073 101.262 75.925 100.84 76.3602C100.424 76.7955 100.216 77.3249 100.216 77.9484C100.216 78.5661 100.424 79.0925 100.84 79.5278C101.262 79.9631 101.778 80.1807 102.387 80.1807C102.997 80.1807 103.51 79.9631 103.926 79.5278C104.348 79.0925 104.559 78.5661 104.559 77.9484C104.559 77.3249 104.348 76.7955 103.926 76.3602ZM104.691 80.2248C104.07 80.8307 103.302 81.1336 102.387 81.1336C101.473 81.1336 100.705 80.8307 100.084 80.2248C99.4622 79.6131 99.1516 78.8543 99.1516 77.9484C99.1516 77.0367 99.4622 76.2779 100.084 75.672C100.705 75.0603 101.473 74.7544 102.387 74.7544C103.302 74.7544 104.07 75.0603 104.691 75.672C105.313 76.2779 105.623 77.0367 105.623 77.9484C105.623 78.8543 105.313 79.6131 104.691 80.2248Z" fill="black"/>
<path d="M106.946 75.8396V74.9043H109.935V78.9718C109.935 79.6894 109.754 80.2277 109.39 80.5865C109.027 80.9453 108.561 81.1247 107.992 81.1247C107.277 81.1247 106.667 80.8718 106.163 80.3659L106.752 79.5453C107.151 79.9277 107.541 80.1189 107.922 80.1189C108.191 80.1189 108.42 80.0277 108.608 79.8453C108.801 79.663 108.898 79.3895 108.898 79.0248V75.8396H106.946Z" fill="black"/>
<path d="M115.904 74.9043V75.8837H112.624V77.516H115.57V78.4424H112.624V80.0924H116.009V81.0718H111.587V74.9043H115.904Z" fill="black"/>
<path d="M120.145 80.1278C120.502 80.1278 120.81 80.0689 121.068 79.9513C121.326 79.8278 121.596 79.6337 121.877 79.369L122.545 80.0572C121.895 80.7807 121.103 81.1424 120.171 81.1424C119.245 81.1424 118.474 80.8425 117.858 80.2425C117.249 79.6425 116.944 78.8837 116.944 77.9661C116.944 77.0484 117.255 76.2838 117.876 75.672C118.503 75.0603 119.292 74.7544 120.241 74.7544C121.197 74.7544 121.994 75.1073 122.633 75.8132L121.974 76.5367C121.681 76.2544 121.402 76.0573 121.138 75.9455C120.88 75.8338 120.576 75.7779 120.224 75.7779C119.602 75.7779 119.081 75.9808 118.659 76.3867C118.237 76.7867 118.026 77.3014 118.026 77.9308C118.026 78.5543 118.234 79.0778 118.65 79.5013C119.072 79.9189 119.57 80.1278 120.145 80.1278V80.1278Z" fill="black"/>
<path d="M126.136 75.8572V81.0718H125.098V75.8572H123.234V74.9043H128V75.8572H126.136Z" fill="black"/>
<defs>
<linearGradient id="paint0_linear_102_58" x1="18.3908" y1="43.6701" x2="28.6164" y2="40.8369" gradientUnits="userSpaceOnUse">
<stop stop-color="#F59723"/>
<stop offset="0.3123" stop-color="#F69822"/>
<stop offset="0.8383" stop-color="#E87726"/>
</linearGradient>
<linearGradient id="paint1_linear_102_58" x1="-3.98094" y1="89.6975" x2="16.9243" y2="45.0185" gradientUnits="userSpaceOnUse">
<stop offset="0.3233" stop-color="#9C2063"/>
<stop offset="0.6302" stop-color="#C82037"/>
<stop offset="0.7514" stop-color="#CC2135"/>
<stop offset="1" stop-color="#E87726"/>
</linearGradient>
<linearGradient id="paint2_linear_102_58" x1="2.99451" y1="86.3873" x2="15.452" y2="59.763" gradientUnits="userSpaceOnUse">
<stop stop-color="#282661"/>
<stop offset="0.0954839" stop-color="#662E8C"/>
<stop offset="0.7882" stop-color="#9E2064"/>
<stop offset="0.9487" stop-color="#CC2032"/>
</linearGradient>
<linearGradient id="paint3_linear_102_58" x1="-3.23172" y1="86.9893" x2="17.6736" y2="42.3103" gradientUnits="userSpaceOnUse">
<stop offset="0.3233" stop-color="#9C2063"/>
<stop offset="0.6302" stop-color="#C82037"/>
<stop offset="0.7514" stop-color="#CC2135"/>
<stop offset="1" stop-color="#E87726"/>
</linearGradient>
<linearGradient id="paint4_linear_102_58" x1="-1.11084" y1="84.0098" x2="9.87552" y2="60.5297" gradientUnits="userSpaceOnUse">
<stop stop-color="#282661"/>
<stop offset="0.0954839" stop-color="#662E8C"/>
<stop offset="0.7882" stop-color="#9E2064"/>
<stop offset="0.9487" stop-color="#CC2032"/>
</linearGradient>
<linearGradient id="paint5_linear_102_58" x1="1.38388" y1="89.1487" x2="22.2892" y2="44.4698" gradientUnits="userSpaceOnUse">
<stop offset="0.3233" stop-color="#9C2063"/>
<stop offset="0.6302" stop-color="#C82037"/>
<stop offset="0.7514" stop-color="#CC2135"/>
<stop offset="1" stop-color="#E87726"/>
</linearGradient>
<linearGradient id="paint6_linear_102_58" x1="-0.136434" y1="91.8156" x2="20.7688" y2="47.1366" gradientUnits="userSpaceOnUse">
<stop offset="0.3233" stop-color="#9C2063"/>
<stop offset="0.6302" stop-color="#C82037"/>
<stop offset="0.7514" stop-color="#CC2135"/>
<stop offset="1" stop-color="#E87726"/>
</linearGradient>
<linearGradient id="paint7_linear_102_58" x1="2.75374" y1="89.7897" x2="23.659" y2="45.1107" gradientUnits="userSpaceOnUse">
<stop offset="0.3233" stop-color="#9C2063"/>
<stop offset="0.6302" stop-color="#C82037"/>
<stop offset="0.7514" stop-color="#CC2135"/>
<stop offset="1" stop-color="#E87726"/>
</linearGradient>
<linearGradient id="paint8_linear_102_58" x1="2.59893" y1="89.7178" x2="23.5041" y2="45.0386" gradientUnits="userSpaceOnUse">
<stop offset="0.3233" stop-color="#9C2063"/>
<stop offset="0.6302" stop-color="#C82037"/>
<stop offset="0.7514" stop-color="#CC2135"/>
<stop offset="1" stop-color="#E87726"/>
</linearGradient>
<linearGradient id="paint9_linear_102_58" x1="13.6222" y1="65.8911" x2="19.4641" y2="53.3689" gradientUnits="userSpaceOnUse">
<stop offset="0.3233" stop-color="#9C2063"/>
<stop offset="0.6302" stop-color="#C82037"/>
<stop offset="0.7514" stop-color="#CC2135"/>
<stop offset="1" stop-color="#E87726"/>
</linearGradient>
</defs>
</svg>
