<svg xmlns="http://www.w3.org/2000/svg" viewBox="0 0 128 128">
  <rect width="128" height="128" rx="18" fill="#7952b3"/>
  <path d="M40 24h33.6c5.8 0 10.5.8 14.1 2.4 3.6 1.6 6.2 3.8 7.9 6.6 1.7 2.8 2.5 5.9 2.5 9.2 0 3.1-.7 5.9-2.2 8.5-1.5 2.6-3.8 4.7-6.8 6.3 4 1.2 7.1 3.3 9.2 6.3 2.1 3 3.2 6.4 3.2 10.4 0 3.2-.7 6.2-2 8.8-1.3 2.7-3.1 4.8-5.4 6.3-2.3 1.5-5.1 2.7-8.6 3.5-3.4.8-7.3 1.2-11.7 1.2H40V24zm14 25.6h17.5c4.2 0 7.2-.7 9.1-2.1 1.9-1.4 2.8-3.5 2.8-6.5 0-2.8-.9-4.8-2.8-6.1-1.9-1.3-4.8-1.9-8.8-1.9H54v16.6zm0 27.2h19.8c4.6 0 8-.8 10.2-2.4 2.2-1.6 3.3-4 3.3-7.2 0-3.1-1.1-5.4-3.3-6.9-2.2-1.5-5.6-2.3-10.2-2.3H54v18.8z" fill="#fff"/>
</svg>
