<svg width="128" height="128" viewBox="0 0 128 128" fill="none" xmlns="http://www.w3.org/2000/svg">
<path fill-rule="evenodd" clip-rule="evenodd" d="M20 96.9001V88.8001C20 87.7001 20.7 86.9001 21.8 86.9001H22.1C23.2 86.9001 23.9 87.8001 23.9 88.8001V105.8C23.9 109.9 21.9 113.2 18.3 115.3C16.6 116.3 14.8 116.8 12.9 116.8H12.1C7.99998 116.8 4.69998 114.8 2.59998 111.2C1.59998 109.5 1.09998 107.7 1.09998 105.8V105C1.09998 100.9 3.09998 97.6001 6.69998 95.5001C8.39998 94.5001 10.2 94.0001 12.1 94.0001H12.9C15.6 94.1001 18 95.1001 20 96.9001V96.9001ZM4.89998 105.4C4.89998 108.4 6.39998 110.6 8.99998 112.1C10.1 112.7 11.2 113 12.4 113C15.3 113 17.5 111.6 19 109.1C19.7 107.9 20 106.7 20 105.3C20 102.7 18.8 100.7 16.7 99.2001C15.4 98.3001 14 97.8001 12.5 97.8001C9.29998 97.8001 6.99998 99.4001 5.59998 102.3C5.09998 103.3 4.89998 104.4 4.89998 105.4V105.4ZM37.1 94.1001H37.6C42 94.1001 45.4 96.2001 47.5 100.1C48.4 101.6 48.8 103.3 48.8 105.1V105.9C48.8 110 46.8 113.3 43.2 115.4C41.5 116.4 39.7 116.9 37.8 116.9H37C32.9 116.9 29.6 114.9 27.5 111.3C26.5 109.6 26 107.8 26 105.9V105.1C26 101 28.1 97.7001 31.6 95.6001C33.3 94.5001 35.2 94.1001 37.1 94.1001ZM29.9 105.4C29.9 108.3 31.3 110.4 33.8 111.9C35 112.6 36.2 112.9 37.6 112.9C40.5 112.9 42.6 111.4 44.1 109C44.8 107.8 45.1 106.6 45.1 105.2C45.1 102.5 43.8 100.4 41.6 98.9001C40.4 98.1001 39 97.7001 37.6 97.7001C34.4 97.7001 32.1 99.3001 30.7 102.2C30.1 103.3 29.9 104.4 29.9 105.4ZM64.7 98.2001C64.1 97.9001 63 97.8001 62.4 97.8001C59.2 97.7001 56.9 99.5001 55.5 102.3C55 103.3 54.8 104.3 54.8 105.4C54.8 108.7 56.5 111 59.4 112.4C60.5 112.9 61.8 113 63 113C64 113 65.5 112.4 66.4 111.9L66.6 111.8H67.4C68.3 112 68.9 112.5 68.9 113.5V113.9C68.9 116.2 64.6 116.8 63 116.9C57.3 117.3 53 114.2 51.4 108.7C51.1 107.8 51 106.8 51 105.8V105C51 100.9 53.1 97.6001 56.6 95.5001C58.3 94.5001 60.1 94.0001 62 94.0001H62.8C64.8 94.0001 66.7 94.6001 68.4 95.7001L68.5 95.8001L68.6 95.9001C68.8 96.2001 68.9 96.5001 68.9 96.9001V97.3001C68.9 98.3001 68.2 98.8001 67.3 99.0001H67C66.5 99.0001 65.2 98.4001 64.7 98.2001ZM77.1 100.8C78.6 99.3001 80.1 97.8001 81.6 96.4001C82 96.0001 83.6 94.3001 84.2 94.3001H85C85.9 94.5001 86.5 95.0001 86.5 96.0001V96.4001C86.5 97.0001 85.8 97.8001 85.3 98.2001L82.6 100.9L78 105.6C80 107.6 82 109.6 83.9 111.6L85.5 113.3C85.7 113.5 86 113.7 86.1 114C86.3 114.3 86.4 114.6 86.4 114.9V115.4C86.2 116.3 85.6 117 84.7 117H84.4C83.8 117 83.1 116.3 82.6 115.9C81.7 115.1 80.8 114.2 80 113.3L77.1 110.4V115C77.1 116.1 76.4 116.9 75.3 116.9H75C73.9 116.9 73.2 116 73.2 115V88.9001C73.2 87.8001 73.9 87.0001 75 87.0001H75.3C76.4 87.0001 77.1 87.8001 77.1 88.9001V100.8V100.8ZM124.7 94.2001H125.1C126.2 94.2001 127 95.0001 127 96.1001C127 97.7001 125.5 98.1001 124.2 98.1001C122.5 98.1001 120.8 99.1001 119.7 100.3C118.2 101.8 117.6 103.6 117.6 105.7V114.9C117.6 116 116.9 116.8 115.8 116.8H115.5C114.4 116.8 113.7 115.9 113.7 114.9V105.1C113.7 101.3 115.5 98.3001 118.6 96.1001C120.4 94.9001 122.5 94.2001 124.7 94.2001V94.2001ZM97.6 112.5C99 113 100.6 112.9 102 112.7C102.7 112.4 104.6 111.6 105.3 111.7H105.5C105.9 111.9 106.3 112.2 106.5 112.6C107 113.6 106.8 114.6 105.8 115.2L105.5 115.4C101.9 117.5 98 117.2 94.4 115.2C92.7 114.3 91.4 112.9 90.4 111.2L90.2 110.8C87.9 106.8 88.2 102.5 90.8 98.7001C91.7 97.4001 92.9 96.4001 94.3 95.6001L94.8 95.3001C98.2 93.3001 101.9 93.5001 105.4 95.2001C107.3 96.1001 108.8 97.5001 109.9 99.3001L110.1 99.6001C110.9 100.9 109.9 102.1 108.9 102.9C107.7 103.8 106.5 104.9 105.4 105.9C102.7 108.1 100.1 110.3 97.6 112.5ZM94.3 110.2L102.8 102.9C103.8 102.1 104.8 101.2 105.8 100.3C105 99.3001 103.7 98.6001 102.7 98.2001C100.5 97.4001 98.3 97.6001 96.3 98.8001C93.7 100.3 92.5 102.8 92.6 105.8C92.6 107 93 108.1 93.6 109.2C93.8 109.6 94 109.9 94.3 110.2M73.7 33.7001H85V45.2001H90.7C93.3 45.2001 96 44.7001 98.5 43.9001C99.7 43.5001 101.1 42.9001 102.3 42.2001C100.7 40.1001 99.9 37.5001 99.7 34.9001C99.4 31.4001 100.1 26.8001 102.5 24.1001L103.7 22.7001L105.1 23.8001C108.7 26.7001 111.6 30.6001 112.2 35.2001C116.5 33.9001 121.5 34.2001 125.3 36.4001L126.8 37.3001L126 38.9001C122.8 45.1001 116.1 47.1001 109.6 46.7001C99.8 71.0001 78.6 82.5001 52.8 82.5001C39.5 82.5001 27.3 77.5001 20.3 65.7001L20.2 65.5001L19.2 63.4001C16.8 58.2001 16.1 52.5001 16.6 46.8001L16.8 45.1001H26.4V33.7001H37.7V22.4001H60.2V11.1001H73.7V33.7001V33.7001Z" fill="#3A4D54"/>
<path d="M110.2 37.9C111 32 106.6 27.4 103.8 25.2C100.7 28.8 100.2 38.4 105.1 42.4C102.3 44.8 96.6 47.0999 90.6 47.0999H18.4C17.8 53.2999 18.9 59 21.4 63.9L22.2 65.4C22.7 66.3 23.3 67.1 23.9 68C26.9 68.2 29.6 68.2999 32.1 68.1999C37 68.0999 41 67.5 44.1 66.5C44.6 66.3 45 66.6 45.2 67C45.4 67.5 45.1 67.8999 44.7 68.0999C44.3 68.1999 43.9 68.4 43.4 68.5C41 69.2 38.4 69.6 35.1 69.8H34.5C33.2 69.9 31.8 69.9 30.3 69.9C28.7 69.9 27.2 69.9 25.4 69.8C31.4 76.6 40.8 80.5999 52.6 80.5999C77.6 80.5999 98.8 69.5 108.1 44.7C114.8 45.4 121.2 43.7 124.1 38C119.6 35.4 113.6 36.2 110.2 37.9V37.9Z" fill="#00AADA"/>
<path d="M110.2 37.9C111 32 106.6 27.4 103.8 25.2C100.7 28.8 100.2 38.4 105.1 42.4C102.3 44.8 96.6 47.0999 90.6 47.0999H22.6C22.3 56.5999 25.8 63.7999 32.1 68.0999C37 67.9999 41 67.4 44.1 66.4C44.6 66.2 45 66.5 45.2 66.9C45.4 67.4 45.1 67.8 44.7 68C44.3 68.1 43.9 68.3 43.4 68.4C41 69.1 38.2 69.6 34.9 69.8L34.8 69.6999C43.3 74.0999 55.6 73.9999 69.8 68.5999C85.6 62.4999 100.4 50.9 110.7 37.7C110.5 37.8 110.4 37.9 110.2 37.9V37.9Z" fill="#28B8EB"/>
<path d="M18.5 54.6001C18.9 57.9001 19.9 61.0001 21.4 63.9001L22.2 65.4001C22.7 66.3001 23.3 67.1001 23.9 68.0001C26.9 68.2001 29.6 68.3001 32.1 68.2001C37 68.1001 41 67.5001 44.1 66.5001C44.6 66.3001 45 66.6001 45.2 67.0001C45.4 67.5001 45.1 67.9001 44.7 68.1001C44.3 68.2001 43.9 68.4001 43.4 68.5001C41 69.2001 38.2 69.7001 34.9 69.9001H34.5C33.2 70.0001 31.8 70.0001 30.4 70.0001C28.8 70.0001 27.2 70.0001 25.5 69.9001C31.5 76.7001 41 80.7001 52.8 80.7001C74.2 80.7001 92.8 72.6001 103.6 54.7001H18.5V54.6001Z" fill="#028BB8"/>
<path d="M23.3 54.6001C24.6 60.4001 27.6 65.0001 32.1 68.1001C37 68.0001 41 67.4001 44.1 66.4001C44.6 66.2001 45.0001 66.5001 45.2001 66.9001C45.4001 67.4001 45.1001 67.8001 44.7001 68.0001C44.3001 68.1001 43.9001 68.3001 43.4001 68.4001C41.0001 69.1001 38.2 69.6001 34.8 69.8001C43.3 74.2001 55.6 74.1001 69.7 68.7001C78.2 65.4001 86.5001 60.5001 93.9001 54.6001H23.3Z" fill="#019BC6"/>
<path fill-rule="evenodd" clip-rule="evenodd" d="M28.2 35.5H38V45.3H28.2V35.5ZM29 36.4001H29.7999V44.5H29V36.4001ZM30.5 36.4001H31.2999V44.5H30.5V36.4001ZM32 36.4001H32.7999V44.5H32V36.4001ZM33.4 36.4001H34.2V44.5H33.4V36.4001ZM34.9 36.4001H35.7V44.5H34.9V36.4001ZM36.4 36.4001H37.2V44.5H36.4V36.4001ZM39.5 24.3H49.2999V34H39.5V24.3V24.3ZM40.2999 25.1H41.0999V33.2001H40.2999V25.1V25.1ZM41.7999 25.1H42.5999V33.2001H41.7999V25.1V25.1ZM43.2 25.1H44V33.2001H43.2V25.1V25.1ZM44.7 25.1H45.5V33.2001H44.7V25.1V25.1ZM46.2 25.1H47V33.2001H46.2V25.1V25.1ZM47.7 25.1H48.5V33.2001H47.7V25.1V25.1Z" fill="#00ACD3"/>
<path fill-rule="evenodd" clip-rule="evenodd" d="M39.5 35.5H49.3V45.3H39.5V35.5ZM40.3 36.4H41.1V44.5H40.3V36.4ZM41.8 36.4H42.6V44.5H41.8V36.4ZM43.2 36.4H44V44.5H43.2V36.4ZM44.7 36.4H45.5V44.5H44.7V36.4ZM46.2 36.4H47V44.5H46.2V36.4ZM47.7 36.4H48.5V44.5H47.7V36.4Z" fill="#23C2EE"/>
<path fill-rule="evenodd" clip-rule="evenodd" d="M50.8 35.5H60.6V45.3H50.8V35.5ZM51.6 36.4H52.4001V44.5H51.6V36.4ZM53 36.4H53.8V44.5H53V36.4V36.4ZM54.5 36.4H55.3V44.5H54.5V36.4ZM56 36.4H56.8V44.5H56V36.4V36.4ZM57.5 36.4H58.3V44.5H57.5V36.4ZM58.9001 36.4H59.7001V44.5H58.9001V36.4Z" fill="#00ACD3"/>
<path fill-rule="evenodd" clip-rule="evenodd" d="M50.8 24.3H60.6V34H50.8V24.3ZM51.6 25.1H52.4001V33.2001H51.6V25.1ZM53 25.1H53.8V33.2001H53V25.1V25.1ZM54.5 25.1H55.3V33.2001H54.5V25.1ZM56 25.1H56.8V33.2001H56V25.1V25.1ZM57.5 25.1H58.3V33.2001H57.5V25.1ZM58.9001 25.1H59.7001V33.2001H58.9001V25.1ZM62 35.5H71.8001V45.3H62V35.5ZM62.9001 36.4001H63.7001V44.5H62.9001V36.4001ZM64.3001 36.4001H65.1V44.5H64.3001V36.4001ZM65.8001 36.4001H66.6V44.5H65.8001V36.4001ZM67.3001 36.4001H68.1V44.5H67.3001V36.4001ZM68.7 36.4001H69.5V44.5H68.7V36.4001ZM70.2 36.4001H71V44.5H70.2V36.4001Z" fill="#23C2EE"/>
<path fill-rule="evenodd" clip-rule="evenodd" d="M62 24.3H71.8V34H62V24.3ZM62.9 25.1H63.7V33.2001H62.9V25.1ZM64.3 25.1H65.1V33.2001H64.3V25.1ZM65.8 25.1H66.6V33.2001H65.8V25.1ZM67.3 25.1H68.1V33.2001H67.3V25.1ZM68.7 25.1H69.5V33.2001H68.7V25.1ZM70.2 25.1H71V33.2001H70.2V25.1Z" fill="#00ACD3"/>
<path fill-rule="evenodd" clip-rule="evenodd" d="M62 13H71.8V22.8H62V13ZM62.9 13.8H63.7V22H62.9V13.8ZM64.3 13.8H65.1V22H64.3V13.8ZM65.8 13.8H66.6V22H65.8V13.8ZM67.3 13.8H68.1V22H67.3V13.8ZM68.7 13.8H69.5V22H68.7V13.8ZM70.2 13.8H71V22H70.2V13.8Z" fill="#23C2EE"/>
<path fill-rule="evenodd" clip-rule="evenodd" d="M73.3 35.5H83.1V45.3H73.3V35.5ZM74.1 36.4H74.9V44.5H74.1V36.4ZM75.6 36.4H76.4V44.5H75.6V36.4ZM77.1 36.4H77.9V44.5H77.1V36.4ZM78.5 36.4H79.3V44.5H78.5V36.4ZM80 36.4H80.8V44.5H80V36.4ZM81.5 36.4H82.3V44.5H81.5V36.4Z" fill="#00ACD3"/>
<path fill-rule="evenodd" clip-rule="evenodd" d="M48.6 61.2C50.1 61.2 51.3 62.4 51.3 63.9C51.3 65.4 50.1 66.5999 48.6 66.5999C47.1 66.5999 45.9 65.4 45.9 63.9C46 62.4 47.2 61.2 48.6 61.2Z" fill="#D4EEF1"/>
<path fill-rule="evenodd" clip-rule="evenodd" d="M48.6 61.8999C48.8 61.8999 49.1 61.8999 49.3 61.9999C49.1 62.0999 48.9 62.3999 48.9 62.6999C48.9 63.0999 49.3 63.4999 49.7 63.4999C50 63.4999 50.3 63.2999 50.4 63.0999C50.5 63.2999 50.5 63.5999 50.5 63.7999C50.5 64.8999 49.6 65.6999 48.6 65.6999C47.5 65.6999 46.7 64.7999 46.7 63.7999C46.7 62.7999 47.6 61.8999 48.6 61.8999M1 55.5999H126.3C123.6 54.8999 117.7 53.9999 118.6 50.3999C113.6 56.0999 101.7 54.3999 98.6 51.5999C95.2 56.4999 75.6 54.5999 74.3 50.7999C70.1 55.7999 57 55.7999 52.8 50.7999C51.4 54.5999 31.8 56.4999 28.5 51.5999C25.5 54.3999 13.5 56.0999 8.5 50.3999C9.6 53.8999 3.7 54.8999 1 55.5999" fill="#3A4D54"/>
<path d="M55.7999 80.5999C49.0999 77.3999 45.5 73.0999 43.4 68.3999C40.9 69.0999 37.9 69.5999 34.5 69.7999C33.2 69.8999 31.8 69.8999 30.4 69.8999C28.6999 69.8999 27 69.8999 25.2 69.7999C31.3 75.8999 38.9 80.5999 52.7999 80.6999C53.7999 80.5999 54.7999 80.5999 55.7999 80.5999V80.5999Z" fill="#BFDBE0"/>
<path d="M45.9 72.6999C45 71.3999 44.1 69.8999 43.4 68.3999C40.9 69.0999 37.9 69.5999 34.5 69.7999C36.9 71.0999 40.3 72.2999 45.9 72.6999V72.6999Z" fill="#D4EEF1"/>
</svg>
