<svg width="128" height="92" viewBox="0 0 128 92" fill="none" xmlns="http://www.w3.org/2000/svg">
<path d="M110.2 37.9C111 32 106.6 27.4 103.8 25.2C100.7 28.8 100.2 38.4 105.1 42.4C102.3 44.8 96.6 47.0999 90.6 47.0999H18.4C17.8 53.2999 18.9 59 21.4 63.9L22.2 65.4C22.7 66.3 23.3 67.1 23.9 68C26.9 68.2 29.6 68.2999 32.1 68.1999C37 68.0999 41 67.5 44.1 66.5C44.6 66.3 45 66.6 45.2 67C45.4 67.5 45.1 67.8999 44.7 68.0999C44.3 68.1999 43.9 68.4 43.4 68.5C41 69.2 38.4 69.6 35.1 69.8H34.5C33.2 69.9 31.8 69.9 30.3 69.9C28.7 69.9 27.2 69.9 25.4 69.8C31.4 76.6 40.8 80.5999 52.6 80.5999C77.6 80.5999 98.8 69.5 108.1 44.7C114.8 45.4 121.2 43.7 124.1 38C119.6 35.4 113.6 36.2 110.2 37.9Z" fill="#00AADA"/>
<path d="M110.2 37.9C111 32 106.6 27.4 103.8 25.2C100.7 28.8 100.2 38.4 105.1 42.4C102.3 44.8 96.6 47.0999 90.6 47.0999H22.6C22.3 56.5999 25.8 63.7999 32.1 68.0999C37 67.9999 41 67.4 44.1 66.4C44.6 66.2 45 66.5 45.2 66.9C45.4 67.4 45.1 67.8 44.7 68C44.3 68.1 43.9 68.3 43.4 68.4C41 69.1 38.2 69.6 34.8 69.8C43.3 74.2 55.6 74.1 69.8 68.7C85.6 62.5 100.4 50.9 110.7 37.7C110.5 37.8 110.4 37.9 110.2 37.9Z" fill="#28B8EB"/>
<path d="M18.5 54.6001C18.9 57.9001 19.9 61.0001 21.4 63.9001L22.2 65.4001C22.7 66.3001 23.3 67.1001 23.9 68.0001C26.9 68.2001 29.6 68.3001 32.1 68.2001C37 68.1001 41 67.5001 44.1 66.5001C44.6 66.3001 45 66.6001 45.2 67.0001C45.4 67.5001 45.1 67.9001 44.7 68.1001C44.3 68.2001 43.9 68.4001 43.4 68.5001C41 69.2001 38.2 69.7001 34.9 69.9001H34.5C33.2 70.0001 31.8 70.0001 30.4 70.0001C28.8 70.0001 27.2 70.0001 25.5 69.9001C31.5 76.7001 41 80.7001 52.8 80.7001C74.2 80.7001 92.8 72.6001 103.6 54.7001H18.5V54.6001Z" fill="#028BB8"/>
<path d="M23.3 54.6001C24.6 60.4001 27.6 65.0001 32.1 68.1001C37 68.0001 41 67.4001 44.1 66.4001C44.6 66.2001 45.0001 66.5001 45.2001 66.9001C45.4001 67.4001 45.1001 67.8001 44.7001 68.0001C44.3001 68.1001 43.9001 68.3001 43.4001 68.4001C41.0001 69.1001 38.2 69.6001 34.8 69.8001C43.3 74.2001 55.6 74.1001 69.7 68.7001C78.2 65.4001 86.5001 60.5001 93.9001 54.6001H23.3Z" fill="#019BC6"/>
<path fill-rule="evenodd" clip-rule="evenodd" d="M28.2 35.5H38V45.3H28.2V35.5ZM29 36.4001H29.7999V44.5H29V36.4001ZM30.5 36.4001H31.2999V44.5H30.5V36.4001ZM32 36.4001H32.7999V44.5H32V36.4001ZM33.4 36.4001H34.2V44.5H33.4V36.4001ZM34.9 36.4001H35.7V44.5H34.9V36.4001ZM36.4 36.4001H37.2V44.5H36.4V36.4001ZM39.5 24.3H49.2999V34H39.5V24.3ZM40.2999 25.1H41.0999V33.2001H40.2999V25.1ZM41.7999 25.1H42.5999V33.2001H41.7999V25.1ZM43.2 25.1H44V33.2001H43.2V25.1ZM44.7 25.1H45.5V33.2001H44.7V25.1ZM46.2 25.1H47V33.2001H46.2V25.1ZM47.7 25.1H48.5V33.2001H47.7V25.1Z" fill="#00ACD3"/>
<path fill-rule="evenodd" clip-rule="evenodd" d="M39.5 35.5H49.3V45.3H39.5V35.5ZM40.3 36.4H41.1V44.5H40.3V36.4ZM41.8 36.4H42.6V44.5H41.8V36.4ZM43.2 36.4H44V44.5H43.2V36.4ZM44.7 36.4H45.5V44.5H44.7V36.4ZM46.2 36.4H47V44.5H46.2V36.4ZM47.7 36.4H48.5V44.5H47.7V36.4Z" fill="#23C2EE"/>
<path fill-rule="evenodd" clip-rule="evenodd" d="M50.8 35.5H60.6V45.3H50.8V35.5ZM51.6 36.4H52.4001V44.5H51.6V36.4ZM53 36.4H53.8V44.5H53V36.4ZM54.5 36.4H55.3V44.5H54.5V36.4ZM56 36.4H56.8V44.5H56V36.4ZM57.5 36.4H58.3V44.5H57.5V36.4ZM58.9001 36.4H59.7001V44.5H58.9001V36.4Z" fill="#00ACD3"/>
<path fill-rule="evenodd" clip-rule="evenodd" d="M50.8 24.3H60.6V34H50.8V24.3ZM51.6 25.1H52.4001V33.2001H51.6V25.1ZM53 25.1H53.8V33.2001H53V25.1ZM54.5 25.1H55.3V33.2001H54.5V25.1ZM56 25.1H56.8V33.2001H56V25.1ZM57.5 25.1H58.3V33.2001H57.5V25.1ZM58.9001 25.1H59.7001V33.2001H58.9001V25.1ZM62 35.5H71.8001V45.3H62V35.5ZM62.9001 36.4001H63.7001V44.5H62.9001V36.4001ZM64.3001 36.4001H65.1V44.5H64.3001V36.4001ZM65.8001 36.4001H66.6V44.5H65.8001V36.4001ZM67.3001 36.4001H68.1V44.5H67.3001V36.4001ZM68.7 36.4001H69.5V44.5H68.7V36.4001ZM70.2 36.4001H71V44.5H70.2V36.4001Z" fill="#23C2EE"/>
<path fill-rule="evenodd" clip-rule="evenodd" d="M62 24.3H71.8V34H62V24.3ZM62.9 25.1H63.7V33.2001H62.9V25.1ZM64.3 25.1H65.1V33.2001H64.3V25.1ZM65.8 25.1H66.6V33.2001H65.8V25.1ZM67.3 25.1H68.1V33.2001H67.3V25.1ZM68.7 25.1H69.5V33.2001H68.7V25.1ZM70.2 25.1H71V33.2001H70.2V25.1Z" fill="#00ACD3"/>
<path fill-rule="evenodd" clip-rule="evenodd" d="M62 13H71.8V22.8H62V13ZM62.9 13.8H63.7V22H62.9V13.8ZM64.3 13.8H65.1V22H64.3V13.8ZM65.8 13.8H66.6V22H65.8V13.8ZM67.3 13.8H68.1V22H67.3V13.8ZM68.7 13.8H69.5V22H68.7V13.8ZM70.2 13.8H71V22H70.2V13.8Z" fill="#23C2EE"/>
<path fill-rule="evenodd" clip-rule="evenodd" d="M73.3 35.5H83.1V45.3H73.3V35.5ZM74.1 36.4H74.9V44.5H74.1V36.4ZM75.6 36.4H76.4V44.5H75.6V36.4ZM77.1 36.4H77.9V44.5H77.1V36.4ZM78.5 36.4H79.3V44.5H78.5V36.4ZM80 36.4H80.8V44.5H80V36.4ZM81.5 36.4H82.3V44.5H81.5V36.4Z" fill="#00ACD3"/>
<path fill-rule="evenodd" clip-rule="evenodd" d="M48.6 61.2C50.1 61.2 51.3 62.4 51.3 63.9C51.3 65.4 50.1 66.5999 48.6 66.5999C47.1 66.5999 45.9 65.4 45.9 63.9C46 62.4 47.2 61.2 48.6 61.2Z" fill="#D4EEF1"/>
<path d="M73.7 33.7001H85V45.2001H90.7C93.3 45.2001 96 44.7001 98.5 43.9001C99.7 43.5001 101.1 42.9001 102.3 42.2001C100.7 40.1001 99.9 37.5001 99.7 34.9001C99.4 31.4001 100.1 26.8001 102.5 24.1001L103.7 22.7001L105.1 23.8001C108.7 26.7001 111.6 30.6001 112.2 35.2001C116.5 33.9001 121.5 34.2001 125.3 36.4001L126.8 37.3001L126 38.9001C122.8 45.1001 116.1 47.1001 109.6 46.7001C99.8 71.0001 78.6 82.5001 52.8 82.5001C39.5 82.5001 27.3 77.5001 20.3 65.7001L20.2 65.5001L19.2 63.4001C16.8 58.2001 16.1 52.5001 16.6 46.8001L16.8 45.1001H26.4V33.7001H37.7V22.4001H60.2V11.1001H73.7V33.7001Z" fill="#3A4D54"/>
</svg>
