<svg width="128" height="128" viewBox="0 0 128 128" fill="none" xmlns="http://www.w3.org/2000/svg">
<path d="M52.581 67.8171C52.581 67.8171 49.297 69.7281 54.922 70.3741C61.736 71.1521 65.219 71.0401 72.727 69.6211C72.727 69.6211 74.706 70.8581 77.462 71.9301C60.626 79.1431 39.358 71.5121 52.581 67.8171ZM50.522 58.4021C50.522 58.4021 46.838 61.1311 52.467 61.7131C59.747 62.4641 65.494 62.5261 75.446 60.6101C75.446 60.6101 76.819 62.0061 78.982 62.7671C58.63 68.7211 35.961 63.2361 50.522 58.4021V58.4021Z" fill="#0074BD"/>
<path d="M67.865 42.4309C72.016 47.2089 66.777 51.5049 66.777 51.5049C66.777 51.5049 77.31 46.0679 72.473 39.2569C67.954 32.9079 64.491 29.7549 83.244 18.8789C83.245 18.8789 53.806 26.2289 67.865 42.4309Z" fill="#EA2D2E"/>
<path d="M90.1321 74.781C90.1321 74.781 92.5641 76.786 87.4541 78.336C77.7381 81.279 47.0101 82.167 38.4751 78.453C35.4091 77.118 41.1621 75.266 42.9711 74.877C44.8581 74.468 45.9361 74.543 45.9361 74.543C42.5241 72.14 23.8811 79.262 36.4671 81.305C70.7911 86.868 99.0341 78.799 90.1321 74.781V74.781ZM54.1621 48.647C54.1621 48.647 38.5331 52.36 48.6281 53.71C52.8921 54.28 61.3861 54.149 69.3041 53.485C75.7731 52.942 82.2651 51.781 82.2651 51.781C82.2651 51.781 79.9861 52.759 78.3351 53.885C62.4611 58.06 31.8021 56.115 40.6291 51.847C48.0921 48.236 54.1621 48.647 54.1621 48.647V48.647ZM82.2001 64.317C98.3351 55.935 90.8741 47.879 85.6671 48.964C84.3941 49.23 83.8221 49.46 83.8221 49.46C83.8221 49.46 84.2971 48.716 85.2001 48.397C95.5021 44.777 103.423 59.078 81.8781 64.742C81.8781 64.742 82.1251 64.518 82.2001 64.317Z" fill="#0074BD"/>
<path d="M72.4741 1.31299C72.4741 1.31299 81.4091 10.252 63.9981 23.995C50.0361 35.022 60.8141 41.308 63.9921 48.493C55.8421 41.139 49.8641 34.665 53.8741 28.641C59.7631 19.799 76.0781 15.51 72.4741 1.31299V1.31299Z" fill="#EA2D2E"/>
<path d="M55.7491 87.0389C71.2331 88.0289 95.0181 86.4879 95.5811 79.1609C95.5811 79.1609 94.4991 81.9379 82.7821 84.1419C69.5641 86.6299 53.2591 86.3409 43.5911 84.7449C43.5911 84.7449 45.5711 86.3849 55.7491 87.0389V87.0389Z" fill="#0074BD"/>
<path d="M94.8659 100.181H94.3939V99.9171H95.6639V100.181H95.1939V101.498H94.8649L94.8659 100.181V100.181ZM97.4009 100.247H97.3949L96.9269 101.498H96.7109L96.2459 100.247H96.2409V101.498H95.9289V99.9171H96.3859L96.8169 101.036L97.2489 99.9171H97.7029V101.498H97.4009V100.247V100.247ZM53.2109 115.037C51.7509 116.303 50.2069 117.015 48.8199 117.015C46.8459 117.015 45.7749 115.829 45.7749 113.93C45.7749 111.875 46.9209 110.37 51.5129 110.37H53.2099V115.037H53.2109ZM57.2419 119.585V105.508C57.2419 101.909 55.1889 99.5351 50.2449 99.5351C47.3589 99.5351 44.8289 100.249 42.7719 101.157L43.3639 103.65C44.9839 103.055 47.0789 102.503 49.1349 102.503C51.9849 102.503 53.2099 103.65 53.2099 106.024V107.803H51.7859C44.8649 107.803 41.7419 110.488 41.7419 114.526C41.7419 118.005 43.7999 119.982 47.6749 119.982C50.1649 119.982 52.0259 118.954 53.7629 117.449L54.0789 119.586H57.2419V119.585V119.585ZM70.6939 119.585H65.6669L59.6159 99.8961H64.0069L67.7629 111.995L68.5979 115.63C70.4939 110.372 71.8379 105.034 72.5099 99.8971H76.7809C75.6379 106.378 73.5779 113.495 70.6939 119.585V119.585ZM89.9819 115.037C88.5169 116.303 86.9719 117.015 85.5899 117.015C83.6139 117.015 82.5439 115.829 82.5439 113.93C82.5439 111.875 83.6929 110.37 88.2799 110.37H89.9809V115.037H89.9819ZM94.0149 119.585V105.508C94.0149 101.909 91.9559 99.5351 87.0159 99.5351C84.1269 99.5351 81.5979 100.249 79.5409 101.157L80.1339 103.65C81.7539 103.055 83.8519 102.503 85.9079 102.503C88.7539 102.503 89.9819 103.65 89.9819 106.024V107.803H88.5579C81.6349 107.803 78.5129 110.488 78.5129 114.526C78.5129 118.005 80.5689 119.982 84.4429 119.982C86.9339 119.982 88.7919 118.954 90.5339 117.449L90.8519 119.586H94.0149V119.585V119.585ZM37.3219 122.931C36.1749 124.61 34.3169 125.939 32.2849 126.688L30.2959 124.343C31.8429 123.549 33.1679 122.268 33.7849 121.074C34.3169 120.011 34.5379 118.644 34.5379 115.373V92.8911H38.8219V115.064C38.8219 119.439 38.4739 121.208 37.3219 122.931Z" fill="#EA2D2E"/>
</svg>
