<svg width="126" height="101" viewBox="0 0 126 101" fill="none" xmlns="http://www.w3.org/2000/svg">
<path d="M26.125 0.000244141C18.948 0.000244141 13.639 6.28424 13.876 13.0992C14.104 19.6452 13.808 28.1252 11.673 35.0392C9.533 41.9752 5.913 46.3582 0 46.9222V53.3092C5.913 53.8722 9.533 58.2562 11.673 65.1922C13.808 72.1062 14.103 80.5862 13.876 87.1322C13.638 93.9472 18.948 100.23 26.125 100.23H99.665C106.842 100.23 112.151 93.9462 111.914 87.1322C111.686 80.5862 111.982 72.1062 114.116 65.1922C116.256 58.2572 119.867 53.8732 125.78 53.3092V46.9222C119.867 46.3592 116.257 41.9752 114.116 35.0392C111.982 28.1252 111.686 19.6452 111.914 13.0992C112.151 6.28424 106.842 0.000244141 99.664 0.000244141H26.125ZM84.239 61.6862C84.239 71.0702 77.237 76.7592 65.618 76.7592H44.196C44.0658 76.7592 43.9409 76.7075 43.8488 76.6154C43.7567 76.5234 43.705 76.3985 43.705 76.2682V23.9422C43.7049 23.8777 43.7175 23.8137 43.7421 23.754C43.7667 23.6944 43.8029 23.6401 43.8485 23.5944C43.8941 23.5487 43.9482 23.5125 44.0079 23.4877C44.0675 23.463 44.1314 23.4502 44.196 23.4502H65.505C75.194 23.4502 81.552 28.6962 81.552 36.7502C81.552 42.4032 77.275 47.4632 71.825 48.3502V48.6462C79.243 49.4592 84.239 54.5942 84.239 61.6862ZM63.461 30.2112H52.183V46.1332H61.683C69.025 46.1332 73.074 43.1782 73.074 37.8952C73.074 32.9452 69.593 30.2112 63.461 30.2112V30.2112ZM52.183 52.4512V69.9992H63.878C71.523 69.9992 75.573 66.9332 75.573 61.1692C75.573 55.4062 71.41 52.4512 63.386 52.4512H52.183Z" fill="#7952B3"/>
</svg>
